# xmcd
#
# Track frame offsets:
#	150
#	16020
#	33620
#	49445
#	64060
#	80170
#	96755
#	110690
#	127885
#	142980
#	159490
#	173330
#	187660
#	203120
#
# Disc length: 2924 seconds
#
# Revision: 1
# Processed by: cddbd v1.5.2PL0 Copyright (c) Steve Scherf et al.
# Submitted via: audiograbber 1.83.01
#
DISCID=b20b6a0e
DTITLE=LÁZARO DO PIAUÍ - SÓ POR AMOR
DYEAR=1900
DGENRE=FORRÓ
TTITLE0=SÓ POR AMOR
TTITLE1=DANÇANDO FORRÓ(GARRAFA NO BOLSO)
TTITLE2=BOMBOM
TTITLE3=MISTURANDO OS TRAVESSEIROS
TTITLE4=APARÊNCIAS
TTITLE5=ARRIADO POR VOCÊ
TTITLE6=AUSÊNCIA
TTITLE7=SAUDADE DELA
TTITLE8=SEMPRE SIM
TTITLE9=MAL COMUM
TTITLE10=FAÇO TUDO
TTITLE11=CACHORRO ABANDONADO
TTITLE12=HÁ QUANTO TEMPO
TTITLE13=FORRÓ FANKIADO
EXTD=
EXTT0=
EXTT1=
EXTT2=
EXTT3=
EXTT4=
EXTT5=
EXTT6=
EXTT7=
EXTT8=
EXTT9=
EXTT10=
EXTT11=
EXTT12=
EXTT13=
PLAYORDER=
